<?xml version="1.0" encoding="utf-8"?>
<!-- Generator: Adobe Illustrator 18.0.0, SVG Export Plug-In . SVG Version: 6.00 Build 0)  -->
<!DOCTYPE svg PUBLIC "-//W3C//DTD SVG 1.1//EN" "http://www.w3.org/Graphics/SVG/1.1/DTD/svg11.dtd">
<svg version="1.1" id="Layer_1" xmlns="http://www.w3.org/2000/svg" xmlns:xlink="http://www.w3.org/1999/xlink" x="0px" y="0px"
	 viewBox="0 0 1128 229" enable-background="new 0 0 1128 229" xml:space="preserve">
<g>
	<path fill="#003843" d="M1122.1,219.9h-40.5v-4.4v-26.5v-11.7H1070V165h-27.8v12.4h-18.7v-3.9h-13.9v3.9h-6.1v11.7v26.5v4.4h-37.9
		v-2.6h-6.1v-8.7h-22c-5.5-5.9-13.1-9.5-21.2-10.1v-4.7c37.7-1.1,68-32,68-70c0-38-30.3-68.9-68-70v-2h5.8V41.8h-15.6v10.1h5.8v8.9
		c-18.5,0.6-35.7,9.1-47.3,23.7c-1.2,1.5-2.2,3-3.3,4.5l-5.7-7.1c0.7-1,1.1-2.1,1.2-3.3c0.2-1.9-0.3-3.7-1.5-5.2
		c-1.4-1.7-3.4-2.6-5.5-2.6c-1.6,0-3.2,0.6-4.4,1.6c-3,2.5-3.5,6.9-1.1,10c1.4,1.7,3.4,2.6,5.5,2.6c0.9,0,1.8-0.2,2.7-0.6l6.6,8.2
		c-0.2,0.4-0.5,0.8-0.7,1.2c-0.8,1.3-1.6,2.7-2.4,4.2c-1.2,2.6-2.2,5.3-3.1,8.3l-18.6-2.8c-0.2-1.2-0.6-2.3-1.4-3.3
		c-1.2-1.5-2.8-2.5-4.7-2.7c-3.9-0.5-7.5,2.3-7.9,6.1c-0.2,1.9,0.3,3.7,1.4,5.2c1.2,1.5,2.8,2.5,4.7,2.7c0.3,0,0.6,0.1,0.9,0.1
		c2.9,0,5.4-1.7,6.5-4.2l18.2,2.7c-1,5.1-1.5,10.5-1.3,16c0,0.5,0.1,0.9,0.1,1.3c0.2,3.7,0.7,7.3,1.5,11c5.2,23.3,23.7,41.8,47,47
		c4.2,0.9,8.4,1.4,12.6,1.6v11.5c-8.3,0.4-16.1,4.1-21.8,10.1h-19v8.7h-6.1v2.6H820v-3.4h-4.2v-5.8h-2.6v-66.8h-5.6v-11.7h7.6v-4.3
		h-49.1v4.3h7.6v11.7h-5.6v66.8h-2.6v5.8H761v3.4h-22.7c1-1,1.5-2.4,1.5-3.9v-7.4c7.3-1,13-7.2,13-14.8v-16.1h-13v-6.5h-46.2v10.5
		v12.1v22.3c0,1.5,0.6,2.9,1.5,3.9h-27.3v-11.8h-11V80.6H444.1v127.5h-11v11.8h-78.8v-10.5h-34.9v-6.3h-4.7V198h-4v5.2h-4.7v6.3
		h-24.3v-9.3c0-1.8-0.3-3.6-1-5.2l-26.2-65.1c-1.5-3.8-0.3-8.1,3-10.6l70.7-52.9l2.1,2.6l4.5-3.6l2.6,3.3l-3.8,3l11.7,14.9
		c-7,25,23.3,65.3,24.7,67.2l1.2,1.6l43.5-34l-1.2-1.6c-0.3-0.4-7.9-10.4-18.7-20.5c-14.7-13.7-27.6-20.7-38.5-20.8l-11.9-15.3
		l-3.8,3l-2.6-3.4l5.2-4.1l-7.1-8.9l-12.8,10.2l2.5,3.1l-70.6,52.8c-4.7,3.5-6.5,9.8-4.3,15.3l26.2,65.1c0.5,1.2,0.7,2.4,0.7,3.7
		v9.3H269v10.5h-54.9v-22h-5.1v-12.8h-16.5v-6.8l-2.2,0v-12.8h2.2v-10.8h-56l3.1-32.7h-19.8v-5.2c2.2,0.9,5,1.2,6.4,1.2
		c0.5,0,1,0,1.3-0.1c1.6-0.2,3.1-1.1,4.1-2.4c1-1.3,1.4-2.9,1.2-4.6c-0.5-3.3-3.6-5.7-7-5.2c-1.5,0.2-3.8,1.1-5.6,2.2
		c-0.2,0.1-0.3,0.2-0.4,0.3v-3.5c0.5,0.2,1.1,0.3,1.8,0.3c2.7,0,6.5-1.3,8.2-2.5c1.4-0.9,2.3-2.3,2.6-4s-0.1-3.3-1-4.6
		c-1.2-1.7-3-2.7-5.1-2.7c-1.3,0-2.5,0.4-3.5,1.1c-0.7,0.5-1.9,1.7-3,3.1v-1.7c2.8-1.9,3.8-7.6,3.8-9.1c0-3.2-2.6-5.8-5.8-5.8
		s-5.8,2.6-5.8,5.8c0,1.4,1,7.1,3.8,9.1v2c-1.2-1.5-2.5-2.8-3.2-3.3c-1-0.7-2.2-1.1-3.5-1.1c-2,0-3.9,1-5.1,2.7
		c-1.9,2.8-1.2,6.6,1.6,8.6c1.7,1.2,5.5,2.5,8.2,2.5c0,0,0,0,0,0c0.8,0,1.5-0.1,2-0.3v3.7c-0.2-0.1-0.4-0.3-0.6-0.4
		c-1.8-1.1-4.1-2-5.6-2.2c-3.4-0.5-6.5,1.9-7,5.2c-0.5,3.4,1.8,6.5,5.2,7c0.4,0.1,0.8,0.1,1.3,0.1c1.5,0,4.4-0.3,6.6-1.3v5.3H96.7
		l3.1,32.7H82.3v30.4h-5.8V198H54v22H4.1v4H54v0h160.2v0h907.9V219.9z M1040.3,211.6h-32.9v-18.5h30.3c-1,2.2-1.6,4.6-1.6,7.2
		C1036.1,204.6,1037.7,208.5,1040.3,211.6z M1040.1,200.3c0-7.3,5.9-13.3,13.3-13.3s13.3,5.9,13.3,13.3s-5.9,13.3-13.3,13.3
		S1040.1,207.6,1040.1,200.3z M1070.6,200.3c0-2.6-0.6-5-1.6-7.2h8.5v18.5h-11.1C1069,208.5,1070.6,204.6,1070.6,200.3z
		 M1059.3,177.2h-6.5v-2.2h6.5V177.2z M1046.2,169h19.8v8.2h-2.7v-6.2h-14.5v6.2h-2.7V169z M1007.4,181.4h70.1v7.7h-11.1
		c-3.2-3.7-7.9-6.1-13.1-6.1c-5.4,0-10.3,2.5-13.5,6.5v-0.4h-32.5V181.4z M1045,215.6v-0.2c2.5,1.4,5.3,2.2,8.4,2.2
		c2.9,0,5.6-0.7,8-2h16.2v3.8h-70.1v-3.8H1045z M910.4,45.8h7.6v2.1h-7.6V45.8z M980.2,123.9c0,35.7-28.6,64.9-64,66V187
		c16.8-0.5,32.9-7.8,44.3-20.2c3.3-3.6,6.2-7.5,8.6-11.7c2.4-3.8,4.2-8.2,5.4-12.4c1.8-5.7,2.7-11.7,2.8-17.8c0-1,0-1.8,0-2.4l0-0.1
		c0-1.2-0.1-2.4-0.2-3.6c-2.3-30.9-27.3-55.9-58.2-58.2c-0.9-0.1-1.9-0.1-2.8-0.1v-2.8C951.7,59,980.2,88.1,980.2,123.9z
		 M909.7,165.2c-0.8-2.5-4.2-3.9-7.3-5.1c-0.7-0.3-1.6-0.6-1.9-0.8c-2.6-2.9-6.1-4.4-9.5-5.9c-4.5-1.9-8.4-3.6-9.4-8.3
		c-1.2-5.6-7.6-7.8-13.9-9.9c-7-2.4-11.8-4.3-12.6-8.3c-0.5-10.9,1.9-21.6,7-31.1l7,8.8l3.1-2.5l-7.7-9.6c2.8-3.2,6.2-5.4,9.8-6.1
		c5-1,18-3.1,26.1-3.1c4,0,5.2,0.5,5.4,0.7c0.9,0.5,1.1,0.9,1.1,0.9c-0.1,0.5-1.4,1.7-2.2,2.4c-1.9,1.7-5,4.5-2.8,7.8
		c0.7,1,1.1,2.1,1.5,3.2c1.2,3.2,2.7,7.1,9.9,7.5c6.8,0.3,9.8-2.2,12-5c2.1-2.6,4.7-3.7,6.4-3.7c0.7,0,1,0.2,1.2,0.3
		c0.2,0.2,0.1,0.6,0.1,0.8c-0.5,3.9,1.7,7.2,3.5,9.9c1,1.4,2.1,3.2,2,3.9c-0.1,0.3-0.5,0.6-0.7,0.7c-1.8,1.2-9.7,2.6-15.5,3.6
		c-4,0.7-7.7,1.3-10.2,2c-3,0.8-7.4,2.2-10.6,4.5c-4.3,3-4.6,6.2-4,8.3c0.3,1.4,0.2,2.1,0.1,2.3c-0.3-0.1-0.8-0.7-0.9-2
		c-0.3-2.5-1.9-4.2-4.2-4.2c-2.8,0-6,2.5-7.6,5.9c-2,4.3-1.3,9.1,2.1,13.3c5.2,6.4,8.8,9.8,13.1,9.8c2.4,0,4.7-1.1,7.5-2.7
		c0.1-0.1,0.2-0.1,0.3-0.1c0.5,0,1.4,0.6,2.2,1.2c1.3,0.9,2.8,1.9,4.7,1.9c0.3,0,0.6,0,0.9-0.1c2-0.4,3.7-0.5,5.1-0.5
		c4,0,5.3,1.4,6.1,3c0.6,1.2-0.2,6.1-4.4,10.2c-1.9,1.8-3.3,4.2-4.7,6.5c-1.6,2.7-3.2,5.3-5.1,6.1c0.1-0.5,0.2-1.1,0.3-1.6
		c0.3-1.4,0.7-3.1,0.7-4.7c0-2.4-1.8-4.2-3.2-5.6c-0.5-0.5-1.2-1.1-1.4-1.5C909.8,167.2,910,166.2,909.7,165.2z M965.6,153.3
		c-1.6,2.4-2.5,3-2.7,3.1c-0.8-0.7-1.9-4.3-2.6-6.4c-1.1-3.7-2.3-7.6-4.4-9.9c-2.1-2.3-2.3-3.4-2.3-3.8c0.1-0.8,1.3-1.8,2.8-2.9
		c1.8-1.4,4-3.1,5.7-5.8c1.4-2.3,4-3.5,7.7-3.5c1.4,0,2.7,0.2,3.6,0.4c0,0.3,0,0.5,0,0.8c-0.1,3.5-0.7,9.5-2.4,15.8
		C969.7,145.2,967.9,149.3,965.6,153.3C965.6,153.2,965.6,153.2,965.6,153.3z M914.2,64.7c1.5,0,3,0.1,4.5,0.2
		c28.9,2.2,52.3,25.6,54.5,54.5c0,0.3,0,0.6,0,0.9c-1-0.2-2.2-0.3-3.5-0.3c-5.1,0-8.9,1.9-11.1,5.4c-1.3,2.1-3.1,3.5-4.8,4.7
		c-2.1,1.6-4.1,3.2-4.4,5.8c-0.2,2.1,0.9,4.2,3.3,6.9c1.5,1.6,2.6,5.2,3.5,8.3c1.2,4.1,2.4,7.7,4.7,8.9c-1.1,1.4-2.3,2.8-3.5,4.1
		c-10.4,11.2-24.9,18-40.1,18.8c1.5-1.5,2.7-3.5,3.9-5.5c1.3-2.1,2.6-4.2,4.1-5.7c5.1-4.9,6.8-11.7,5.1-14.8
		c-1.8-3.5-4.9-5.2-9.7-5.2c-1.7,0-3.6,0.2-5.8,0.6c0,0-0.1,0-0.1,0c-0.6,0-1.5-0.6-2.4-1.2c-1.3-0.9-2.7-1.9-4.5-1.9
		c-0.8,0-1.6,0.2-2.3,0.6c-2.3,1.4-4,2.2-5.5,2.2c-2.3,0-5-2.3-10-8.4c-3.2-4-2.4-7.4-1.6-9c1.1-2.3,3.1-3.6,4-3.6c0,0,0.1,0,0.1,0
		c0,0,0.1,0.2,0.1,0.6c0.4,3.7,2.8,5.6,5,5.6c1.2,0,2.3-0.5,3-1.5c0.7-1,1.5-2.7,0.7-5.8c-0.3-1.3,0.5-2.6,2.5-4
		c2.1-1.5,5.4-2.9,9.2-3.8c2.4-0.6,6-1.2,9.9-1.9c8.7-1.5,14.6-2.6,17-4.2c1.4-0.9,2.2-2,2.4-3.3c0.5-2.4-1-4.6-2.6-7
		c-1.6-2.3-3.2-4.7-2.9-7.1c0.3-1.9-0.4-3.2-1.1-3.9c-1-1.1-2.4-1.7-4.2-1.7c-3.3,0-6.9,2-9.5,5.2c-1.7,2.1-3.5,3.8-8.7,3.6
		c-4.6-0.2-5.2-2-6.3-4.9c-0.5-1.3-1-2.7-2-4.1c0-0.1-0.1-0.1-0.1-0.1c0.1-0.5,1.4-1.8,2.2-2.4c1.7-1.5,3.7-3.3,3.5-5.7
		c-0.1-1.5-1.1-2.8-3-4c-1.4-0.9-3.8-1.3-7.5-1.3c-8.1,0-20.9,2-26.9,3.2c-0.8,0.2-1.5,0.4-2.3,0.6
		C882.4,71.4,897.8,64.7,914.2,64.7z M847.6,79.7c-1.1-1.3-0.9-3.3,0.5-4.4c0.6-0.4,1.2-0.7,1.9-0.7c0.9,0,1.8,0.4,2.4,1.2
		c0.5,0.6,0.8,1.5,0.7,2.3c-0.1,0.8-0.5,1.6-1.1,2.1C850.7,81.2,848.6,80.9,847.6,79.7z M830.7,104.9c-0.2,1.7-1.7,2.9-3.5,2.7
		c-0.8-0.1-1.6-0.5-2.1-1.2c-0.5-0.7-0.7-1.5-0.6-2.3c0.2-1.5,1.5-2.7,3.1-2.7c0.1,0,0.3,0,0.4,0c0.8,0.1,1.6,0.5,2.1,1.2
		C830.6,103.3,830.8,104.1,830.7,104.9z M856.5,137.6c-0.2-1-0.4-2.1-0.6-3.1c3,2.1,6.9,3.4,10.5,4.6c5.4,1.8,10.5,3.6,11.2,6.9
		c1.4,6.7,6.9,9.1,11.8,11.1c3.2,1.3,6.2,2.6,8.1,4.9c0.6,0.7,1.5,1,3.4,1.8c1.1,0.4,4,1.6,4.8,2.4c-1.6,2.7,0.7,4.9,2.2,6.3
		c0.9,0.9,2,1.9,2,2.7c0,1.2-0.3,2.5-0.6,3.8c-0.3,1.4-0.6,2.7-0.5,3.9c-2.8-0.2-5.6-0.7-8.3-1.3
		C878.7,176.7,861.4,159.4,856.5,137.6z M912.2,202.5v0.1h4v-0.1c5.6,0.5,10.9,2.6,15.3,6h-35.2C900.8,205,906.4,202.9,912.2,202.5z
		 M875.4,212.6h80v4.2h-80V212.6z M809.1,147.8v48.9l-1.6-1.8v-47.1H809.1z M803.5,191.7h-26v-43.8h26V191.7z M777.5,132.1h26v11.7
		h-26V132.1z M773.5,147.8V195l-1.6,1.8v-48.9H773.5z M771.9,201h14.3c0.2,2.2,2,3.9,4.3,3.9s4.1-1.7,4.3-3.9h14.3v9.6h-37.2V201z
		 M735.9,189.8h-38.2v-4.1h38.2V189.8z M748.8,181.6v12.1c0,5.4-3.9,9.8-9,10.8v-10.8v-12.1v0H748.8z M697.7,175.2h38.2v6.5h-38.2
		V175.2z M735.9,193.8V216c0,1-0.8,1.8-1.8,1.8h-34.6c-1,0-1.8-0.8-1.8-1.8v-22.3H735.9z M448.1,84.6h204.7v123.3H448.1V84.6z
		 M437.1,212.1h97c1.1,2,3.2,3.3,5.6,3.3h21.6c2.4,0,4.5-1.3,5.6-3.3h97v6.9H437.1V212.1z M409.1,120.7l-37.1,29
		c-2.7-3.7-9.4-13.5-15-24.9c-5.6-11.4-11-26.4-7.7-37.5l6.1-4.7c0.3,0,0.5,0,0.8,0C377.2,82.6,403.2,113.4,409.1,120.7z
		 M335.4,55.5l2.1,2.6l-6.5,5.2l-2.1-2.6L335.4,55.5z M310.1,207.2h5.3v2.3h-5.3V207.2z M273,213.5h77.3v6.2H273V213.5z
		 M126.4,109.6c1.2-0.2,2.3,0.7,2.5,1.8c0.1,0.6-0.1,1.1-0.4,1.6s-0.9,0.8-1.4,0.8c-0.1,0-0.4,0-0.8,0c-2.4,0-4.9-0.7-5.7-1.3
		C121.3,111.6,124.6,109.8,126.4,109.6z M125.1,95.5c1-0.7,2.4-0.4,3,0.5c0.3,0.5,0.5,1.1,0.3,1.6c-0.1,0.6-0.4,1.1-0.9,1.4
		c-1,0.7-4,1.8-5.9,1.8c-0.2,0-0.3,0-0.4,0C121.5,99.5,123.6,96.5,125.1,95.5z M113.8,100.9c-1.9,0-4.9-1.1-5.9-1.8
		c-1-0.7-1.2-2-0.5-3c0.4-0.6,1.1-0.9,1.8-0.9c0.4,0,0.9,0.1,1.2,0.4c1.5,1,3.6,4,3.9,5.3C114.1,100.8,114,100.9,113.8,100.9z
		 M109.2,113.9c-0.4,0-0.7,0-0.8,0c-1.2-0.2-2-1.3-1.8-2.5c0.2-1.1,1.1-1.9,2.1-1.9c0.1,0,0.2,0,0.3,0c1.8,0.3,5.1,2,5.9,3
		C114.1,113.2,111.5,113.9,109.2,113.9z M117.8,82.7c1,0,1.8,0.8,1.8,1.8c0,1.5-1,4.5-1.8,5.5c-0.8-1-1.8-4-1.8-5.5
		C116,83.5,116.8,82.7,117.8,82.7z M135.2,126l-2.6,27.9h-28.9l-2.6-27.9H135.2z M86.3,158.7h102.2v2.8h-2.2H89.1v20.8h99.4v2.8
		H86.3V158.7z M186.3,167.3H93.1v-1.8h93.2V167.3z M186.3,171.3v1.8H93.1v-1.8H186.3z M93.1,177h93.2v1.2H93.1V177z M80.6,189.1h1.8
		h110.2h12.5v8.1H80.6V189.1z M210.1,219.9h-6.5v-18h6.5V219.9z M67.5,219.9v-18h132.2v18H67.5z M58,202h5.5v18H58V202z"/>
	<path fill="#003843" d="M455.2,202.7h190.7V95.6H455.2V202.7z M459.2,99.6h182.7v99.2H459.2V99.6z"/>
	<rect x="539.7" y="88.2" fill="#003843" width="21" height="4"/>
	<path fill="#003843" d="M495.4,185.4h110.7v-65H495.4V185.4z M499.4,133.8h5.3v47.6h-5.3V133.8z M508.7,181.4v-47.6h93.5v47.6
		H508.7z M602.1,124.3v5.5H499.4v-5.5H602.1z"/>
	<rect x="103.2" y="191.1" fill="#003843" width="80.8" height="4"/>
	<path fill="#003843" d="M80.5,206.1v10.6h109.4v-10.6H80.5z M185.9,212.7H84.5v-2.6h101.4V212.7z"/>
	<path fill="#003843" d="M1063.7,200.3c0-5.7-4.7-10.4-10.4-10.4s-10.4,4.7-10.4,10.4s4.7,10.4,10.4,10.4S1063.7,206,1063.7,200.3z
		 M1047,200.3c0-3.5,2.9-6.4,6.4-6.4c3.5,0,6.4,2.9,6.4,6.4c0,3.5-2.9,6.4-6.4,6.4C1049.9,206.7,1047,203.8,1047,200.3z"/>
	<path fill="#003843" d="M194,106.6c27.7,0,50.2-22.5,50.2-50.2S221.7,6.2,194,6.2s-50.2,22.5-50.2,50.2S166.3,106.6,194,106.6z
		 M194,10.2c25.5,0,46.2,20.7,46.2,46.2s-20.7,46.2-46.2,46.2s-46.2-20.7-46.2-46.2S168.5,10.2,194,10.2z"/>
	<path fill="#003843" d="M193.8,16.6L193.8,16.6c1,0,1.8-0.7,1.8-1.7c0-0.9-0.7-1.7-1.7-1.7h-0.1c-0.9,0-1.7,0.7-1.7,1.7
		C192.2,15.9,192.9,16.6,193.8,16.6z"/>
	<path fill="#003843" d="M152.5,54.7c-0.9,0-1.7,0.7-1.7,1.7v0.1c0,0.9,0.7,1.7,1.7,1.7c0.9,0,1.7-0.7,1.7-1.7v-0.1
		C154.2,55.5,153.4,54.7,152.5,54.7z"/>
	<path fill="#003843" d="M157.2,37.2c0.3,0.1,0.5,0.2,0.8,0.2c0.6,0,1.2-0.3,1.5-0.9c0.5-0.8,0.2-1.8-0.6-2.3
		c-0.8-0.5-1.8-0.2-2.3,0.6l-0.1,0.1C156.1,35.7,156.4,36.7,157.2,37.2z"/>
	<path fill="#003843" d="M230.7,75.7c-0.8-0.5-1.8-0.2-2.3,0.6c-0.5,0.8-0.2,1.8,0.6,2.3c0.3,0.2,0.6,0.2,0.8,0.2
		c0.6,0,1.1-0.3,1.4-0.8l0-0.1C231.8,77.2,231.5,76.2,230.7,75.7z"/>
	<path fill="#003843" d="M174.1,90.9l-0.1-0.1c-0.8-0.4-1.8-0.2-2.3,0.6c-0.4,0.8-0.2,1.8,0.6,2.3l0,0c0.3,0.2,0.6,0.2,0.8,0.2
		c0.6,0,1.1-0.3,1.4-0.8C175.2,92.4,174.9,91.4,174.1,90.9z"/>
	<path fill="#003843" d="M173.2,22.2c0.3,0,0.6-0.1,0.9-0.2c0.8-0.4,1.1-1.5,0.6-2.3c-0.4-0.8-1.5-1.1-2.3-0.6l-0.1,0.1
		c-0.8,0.5-1,1.5-0.6,2.3C172,21.9,172.6,22.2,173.2,22.2z"/>
	<path fill="#003843" d="M233.8,56.4C233.8,56.4,233.8,56.4,233.8,56.4l0,0.1c0,0.9,0.7,1.7,1.7,1.7c0.9,0,1.7-0.7,1.7-1.7v-0.1
		c0,0,0,0,0,0c0,0,0,0,0-0.1l0-0.1c0-0.9-0.7-1.7-1.7-1.7s-1.7,0.7-1.7,1.7L233.8,56.4C233.8,56.3,233.8,56.4,233.8,56.4z"/>
	<path fill="#003843" d="M228.4,36.4c0.3,0.5,0.9,0.8,1.4,0.8c0.3,0,0.6-0.1,0.8-0.2c0.8-0.5,1.1-1.5,0.6-2.3l0-0.1
		c-0.5-0.8-1.5-1.1-2.3-0.6C228.2,34.6,227.9,35.6,228.4,36.4L228.4,36.4z"/>
	<path fill="#003843" d="M194,96.2L194,96.2c-1,0-1.7,0.7-1.7,1.7c0,0.9,0.8,1.7,1.7,1.7h0c0.9,0,1.7-0.7,1.7-1.7
		C195.7,96.9,194.9,96.2,194,96.2z"/>
	<path fill="#003843" d="M213.7,21.9l0.1,0.1c0.3,0.1,0.5,0.2,0.8,0.2c0.6,0,1.2-0.3,1.5-0.9c0.4-0.8,0.2-1.8-0.6-2.3l0,0
		c-0.8-0.5-1.8-0.2-2.3,0.6C212.7,20.4,212.9,21.4,213.7,21.9z"/>
	<path fill="#003843" d="M213.8,90.9c-0.8,0.4-1.1,1.5-0.7,2.3c0.3,0.6,0.9,0.9,1.5,0.9c0.3,0,0.5-0.1,0.8-0.2l0.1-0.1
		c0.8-0.5,1-1.5,0.6-2.3C215.7,90.7,214.6,90.4,213.8,90.9z"/>
	<path fill="#003843" d="M159.5,76.3c-0.5-0.8-1.5-1-2.3-0.6c-0.8,0.5-1,1.5-0.6,2.3c0,0,0,0,0,0c0.3,0.5,0.9,0.8,1.4,0.8
		c0.3,0,0.6-0.1,0.8-0.2C159.7,78.2,160,77.1,159.5,76.3C159.5,76.3,159.5,76.3,159.5,76.3z"/>
	<polygon fill="#003843" points="186.1,62.8 193.1,59.3 195.8,66.3 199.5,64.9 196.7,57.5 220.2,45.6 218.4,42 195.3,53.7 
		189.4,38.2 185.7,39.7 191.7,55.5 184.3,59.2 	"/>
	<path fill="#003843" d="M790.5,181.7c-2.4,0-4.3,1.9-4.3,4.3s1.9,4.3,4.3,4.3s4.3-1.9,4.3-4.3S792.9,181.7,790.5,181.7z"/>
	<path fill="#003843" d="M790.5,161c2.4,0,4.3-1.9,4.3-4.3c0-2.4-1.9-4.3-4.3-4.3s-4.3,1.9-4.3,4.3C786.2,159.1,788.1,161,790.5,161
		z"/>
	<path fill="#003843" d="M790.5,175.7c2.4,0,4.3-1.9,4.3-4.3c0-2.4-1.9-4.3-4.3-4.3s-4.3,1.9-4.3,4.3
		C786.2,173.7,788.1,175.7,790.5,175.7z"/>
	<rect x="715.9" y="134.6" fill="#003843" width="4" height="31.1"/>
	<rect x="723" y="148.4" fill="#003843" width="4" height="9.6"/>
	<rect x="707.5" y="145.3" fill="#003843" width="4" height="18"/>
	<path fill="#003843" d="M578.3,157.6v3.9v9.4H597v-9.4v-3.9v-18.9h-18.7V157.6z M593,166.9h-10.7v-5.3H593V166.9z M582.3,142.7H593
		v14.8h-10.7V142.7z"/>
	<path fill="#003843" d="M556.3,175.4H575v-36.7h-18.7V175.4z M560.3,142.7H571v28.7h-10.7V142.7z"/>
	<path fill="#003843" d="M514,173.3h38.8v-30.9H514V173.3z M518,146.5h30.8v22.9H518V146.5z"/>
	<path fill="#003843" d="M1065.1,97.6h-14.3l5.4-5l-4.8-5.1l-10.8,10.1h-16.8v41.2h41.3V97.6z M1061.1,134.8h-33.3v-33.2h9.9
		l2.2,2.3h-9.4v24.8h27.9v-24.8h-14.3l2.5-2.3h14.6V134.8z M1054.4,107.9v16.8h-19.9v-16.8H1054.4z"/>
	<path fill="#003843" d="M401,207.7c1.4,0,2.6-1.2,2.6-2.6V198c2.5-2.9,4.1-6.6,4.1-10.7c0-9.2-7.8-16.8-17.5-16.8
		s-17.5,7.5-17.5,16.8c0,4.4,1.8,8.3,4.6,11.3v6.5c0,1.4,1.2,2.6,2.6,2.6c1.4,0,2.6-1.2,2.6-2.6v-2.7c0.6,0.3,1.2,0.5,1.9,0.8v2
		c0,1.4,1.2,2.6,2.6,2.6c1.4,0,2.6-1.2,2.6-2.6v-1c0.2,0,0.4,0,0.7,0c0.4,0,0.8,0,1.2-0.1v1.1c0,1.4,1.2,2.6,2.6,2.6
		c1.4,0,2.6-1.2,2.6-2.6v-2.2c0.6-0.2,1.3-0.5,1.9-0.8v3C398.4,206.5,399.5,207.7,401,207.7z M382.3,195.4c-1.6,0-2.9-1.3-2.9-2.9
		s1.3-2.9,2.9-2.9c1.6,0,2.9,1.3,2.9,2.9S383.9,195.4,382.3,195.4z M392.5,198.7c-0.3,0.2-0.6,0.3-0.9,0.3c-0.4,0-0.8-0.2-1.1-0.5
		c-0.5,0.6-1.4,0.7-2,0.2c-0.7-0.5-0.8-1.4-0.3-2.1l2.3-3.2l2.3,3.2C393.3,197.3,393.2,198.2,392.5,198.7z M395.9,192.5
		c0-1.6,1.3-2.9,2.9-2.9c1.6,0,2.9,1.3,2.9,2.9s-1.3,2.9-2.9,2.9C397.2,195.4,395.9,194.1,395.9,192.5z"/>
</g>
</svg>
